<?xml version="1.0" encoding="UTF-8" standalone="no"?>
<!-- Generator: Adobe Illustrator 16.0.0, SVG Export Plug-In . SVG Version: 6.00 Build 0)  -->

<svg
   version="1.1"
   x="0px"
   y="0px"
   width="1135.9751"
   height="568.49438"
   viewBox="0 0 1135.9751 568.49438"
   enable-background="new 0 0 1219 807"
   xml:space="preserve"
   id="svg413"
   xmlns="http://www.w3.org/2000/svg"
   xmlns:svg="http://www.w3.org/2000/svg"><defs
   id="defs417">
	
	
	
	
	
	
	
	
	
	
	
	
	
	
	
	
	
	

	
	
	
	
	
	
</defs>
<g
   id="g6711"
   transform="translate(-29.452954,-185.77261)"><rect
     style="fill:#b4f2ff;fill-opacity:1;stroke:#000000;stroke-width:4.7811;stroke-opacity:0"
     id="rect871"
     width="1130.9292"
     height="563.03931"
     x="31.843504"
     y="188.16316" /><path
     d="M 1164.011,188.755 V 752.85 H 32.987 V 188.755 h 1131.024 m 1.417,-1.417 H 31.57 v 566.929 h 1133.858 z"
     id="path2" /><rect
     x="597.79199"
     y="187.338"
     width="1.4170001"
     height="566.92902"
     id="rect4" /><rect
     x="905.34998"
     y="463.715"
     width="1.418"
     height="14.173"
     id="rect16" /><path
     d="m 969.129,465.132 c 3.131,0 5.669,2.535 5.669,5.669 0,3.128 -2.538,5.669 -5.669,5.669 -3.131,0 -5.67,-2.541 -5.67,-5.669 0,-3.134 2.54,-5.669 5.67,-5.669 m 0,-1.418 c -3.908,0 -7.087,3.179 -7.087,7.086 0,3.907 3.18,7.086 7.087,7.086 3.907,0 7.086,-3.179 7.086,-7.086 0,-3.907 -3.178,-7.086 -7.086,-7.086 z"
     id="path18" /><path
     d="m 905.35,541.667 c -39.076,0 -70.866,-31.79 -70.866,-70.866 0,-39.076 31.79,-70.866 70.866,-70.866 39.076,0 70.867,31.79 70.867,70.866 0,39.076 -31.791,70.866 -70.867,70.866 z m 0,-140.315 c -38.294,0 -69.449,31.155 -69.449,69.449 0,38.294 31.155,69.449 69.449,69.449 38.294,0 69.45,-31.155 69.45,-69.449 0,-38.294 -31.155,-69.449 -69.45,-69.449 z"
     id="path20" /><path
     d="m 976.215,541.667 h -70.866 v -1.417 h 70.866 c 38.294,0 69.45,-31.155 69.45,-69.449 0,-38.294 -31.155,-69.449 -69.45,-69.449 h -70.866 v -1.417 h 70.866 c 39.077,0 70.868,31.79 70.868,70.866 0,39.076 -31.791,70.866 -70.868,70.866 z"
     id="path22" /><circle
     cx="976.92499"
     cy="470.79999"
     r="1.4170001"
     id="circle34" /><rect
     x="-287.65326"
     y="463.39023"
     width="1.418"
     height="14.173"
     id="rect16-5"
     transform="scale(-1,1)" /><path
     d="m 223.87418,464.8072 c -3.131,0 -5.669,2.535 -5.669,5.669 0,3.128 2.538,5.669 5.669,5.669 3.131,0 5.67,-2.541 5.67,-5.669 0,-3.134 -2.54,-5.669 -5.67,-5.669 m 0,-1.418 c 3.908,0 7.087,3.179 7.087,7.086 0,3.907 -3.18,7.086 -7.087,7.086 -3.907,0 -7.086,-3.179 -7.086,-7.086 0,-3.907 3.178,-7.086 7.086,-7.086 z"
     id="path18-6" /><path
     d="m 287.65318,541.3422 c 39.076,0 70.866,-31.79 70.866,-70.866 0,-39.076 -31.79,-70.866 -70.866,-70.866 -39.076,0 -70.867,31.79 -70.867,70.866 0,39.076 31.791,70.866 70.867,70.866 z m 0,-140.315 c 38.294,0 69.449,31.155 69.449,69.449 0,38.294 -31.155,69.449 -69.449,69.449 -38.294,0 -69.45,-31.155 -69.45,-69.449 0,-38.294 31.155,-69.449 69.45,-69.449 z"
     id="path20-2" /><path
     d="m 216.78818,541.3422 h 70.866 v -1.417 h -70.866 c -38.294,0 -69.45,-31.155 -69.45,-69.449 0,-38.294 31.155,-69.449 69.45,-69.449 h 70.866 v -1.417 h -70.866 c -39.077,0 -70.868,31.79 -70.868,70.866 0,39.076 31.791,70.866 70.868,70.866 z"
     id="path22-9" /><circle
     cx="-216.07819"
     cy="470.47519"
     r="1.4170001"
     id="circle34-1"
     transform="scale(-1,1)" /></g>


</svg>
